<svg width="30" height="30" viewBox="0 0 30 30" fill="none" xmlns="http://www.w3.org/2000/svg">
<path d="M24.4492 16.725C24.4992 16.325 24.5367 15.925 24.5367 15.5C24.5367 15.075 24.4992 14.675 24.4492 14.275L27.0867 12.2125C27.3242 12.025 27.3867 11.6875 27.2367 11.4125L24.7367 7.0875C24.6242 6.8875 24.4117 6.775 24.1867 6.775C24.1117 6.775 24.0367 6.7875 23.9742 6.8125L20.8617 8.0625C20.2117 7.5625 19.5117 7.15 18.7492 6.8375L18.2742 3.525C18.2367 3.225 17.9742 3 17.6617 3H12.6617C12.3492 3 12.0867 3.225 12.0492 3.525L11.5742 6.8375C10.8117 7.15 10.1117 7.575 9.46166 8.0625L6.34916 6.8125C6.27416 6.7875 6.19916 6.775 6.12416 6.775C5.91166 6.775 5.69916 6.8875 5.58666 7.0875L3.08666 11.4125C2.92416 11.6875 2.99916 12.025 3.23666 12.2125L5.87416 14.275C5.82416 14.675 5.78666 15.0875 5.78666 15.5C5.78666 15.9125 5.82416 16.325 5.87416 16.725L3.23666 18.7875C2.99916 18.975 2.93666 19.3125 3.08666 19.5875L5.58666 23.9125C5.69916 24.1125 5.91166 24.225 6.13666 24.225C6.21166 24.225 6.28666 24.2125 6.34916 24.1875L9.46166 22.9375C10.1117 23.4375 10.8117 23.85 11.5742 24.1625L12.0492 27.475C12.0867 27.775 12.3492 28 12.6617 28H17.6617C17.9742 28 18.2367 27.775 18.2742 27.475L18.7492 24.1625C19.5117 23.85 20.2117 23.425 20.8617 22.9375L23.9742 24.1875C24.0492 24.2125 24.1242 24.225 24.1992 24.225C24.4117 24.225 24.6242 24.1125 24.7367 23.9125L27.2367 19.5875C27.3867 19.3125 27.3242 18.975 27.0867 18.7875L24.4492 16.725ZM21.9742 14.5875C22.0242 14.975 22.0367 15.2375 22.0367 15.5C22.0367 15.7625 22.0117 16.0375 21.9742 16.4125L21.7992 17.825L22.9117 18.7L24.2617 19.75L23.3867 21.2625L21.7992 20.625L20.4992 20.1L19.3742 20.95C18.8367 21.35 18.3242 21.65 17.8117 21.8625L16.4867 22.4L16.2867 23.8125L16.0367 25.5H14.2867L14.0492 23.8125L13.8492 22.4L12.5242 21.8625C11.9867 21.6375 11.4867 21.35 10.9867 20.975L9.84916 20.1L8.52416 20.6375L6.93666 21.275L6.06166 19.7625L7.41166 18.7125L8.52416 17.8375L8.34916 16.425C8.31166 16.0375 8.28666 15.75 8.28666 15.5C8.28666 15.25 8.31166 14.9625 8.34916 14.5875L8.52416 13.175L7.41166 12.3L6.06166 11.25L6.93666 9.7375L8.52416 10.375L9.82416 10.9L10.9492 10.05C11.4867 9.65 11.9992 9.35 12.5117 9.1375L13.8367 8.6L14.0367 7.1875L14.2867 5.5H16.0242L16.2617 7.1875L16.4617 8.6L17.7867 9.1375C18.3242 9.3625 18.8242 9.65 19.3242 10.025L20.4617 10.9L21.7867 10.3625L23.3742 9.725L24.2492 11.2375L22.9117 12.3L21.7992 13.175L21.9742 14.5875ZM15.1617 10.5C12.3992 10.5 10.1617 12.7375 10.1617 15.5C10.1617 18.2625 12.3992 20.5 15.1617 20.5C17.9242 20.5 20.1617 18.2625 20.1617 15.5C20.1617 12.7375 17.9242 10.5 15.1617 10.5ZM15.1617 18C13.7867 18 12.6617 16.875 12.6617 15.5C12.6617 14.125 13.7867 13 15.1617 13C16.5367 13 17.6617 14.125 17.6617 15.5C17.6617 16.875 16.5367 18 15.1617 18Z" fill="#D61818"/>
</svg>
