<svg width="30" height="30" viewBox="0 0 30 30" fill="none" xmlns="http://www.w3.org/2000/svg">
<g clip-path="url(#clip0_4_889)">
<g clip-path="url(#clip1_4_889)">
<path d="M15 2.5C8.1 2.5 2.5 8.1 2.5 15C2.5 21.9 8.1 27.5 15 27.5C21.9 27.5 27.5 21.9 27.5 15C27.5 8.1 21.9 2.5 15 2.5ZM9.1875 23.125C10.825 21.95 12.825 21.25 15 21.25C17.175 21.25 19.175 21.95 20.8125 23.125C19.175 24.3 17.175 25 15 25C12.825 25 10.825 24.3 9.1875 23.125ZM22.675 21.4C20.5625 19.75 17.9 18.75 15 18.75C12.1 18.75 9.4375 19.75 7.325 21.4C5.875 19.6625 5 17.4375 5 15C5 9.475 9.475 5 15 5C20.525 5 25 9.475 25 15C25 17.4375 24.125 19.6625 22.675 21.4Z" fill="#D61818"/>
<path d="M15 7.5C12.5875 7.5 10.625 9.4625 10.625 11.875C10.625 14.2875 12.5875 16.25 15 16.25C17.4125 16.25 19.375 14.2875 19.375 11.875C19.375 9.4625 17.4125 7.5 15 7.5ZM15 13.75C13.9625 13.75 13.125 12.9125 13.125 11.875C13.125 10.8375 13.9625 10 15 10C16.0375 10 16.875 10.8375 16.875 11.875C16.875 12.9125 16.0375 13.75 15 13.75Z" fill="#D61818"/>
</g>
</g>
<defs>
<clipPath id="clip0_4_889">
<rect width="30" height="30" fill="white"/>
</clipPath>
<clipPath id="clip1_4_889">
<rect width="30" height="30" fill="white"/>
</clipPath>
</defs>
</svg>
